<?xml version="1.0" encoding="UTF-8"?>
<svg version="1.1" xmlns="http://www.w3.org/2000/svg" width="959" height="973">
<path d="M0 0 C1.13721276 -0.00081176 2.27442553 -0.00162352 3.44609928 -0.00245988 C4.75990322 -0.01549862 6.07370716 -0.02853736 7.42732334 -0.04197121 C8.88899416 -0.03116032 10.35066154 -0.01987701 11.81232548 -0.00817239 C13.36228445 -0.01393141 14.9122366 -0.02187106 16.46217442 -0.03180861 C20.72854788 -0.05273755 24.99436422 -0.04233941 29.26074004 -0.02687752 C33.85948151 -0.01559176 38.45812533 -0.03301341 43.05684757 -0.04677713 C52.07082456 -0.06904805 61.08459375 -0.06419 70.09857899 -0.04971392 C77.4272508 -0.03843121 84.75586428 -0.03688661 92.08454227 -0.04233301 C93.6479991 -0.04348225 93.6479991 -0.04348225 95.24304092 -0.04465472 C97.36043503 -0.04625334 99.47782912 -0.0478744 101.59522319 -0.04951768 C121.46825752 -0.06378791 141.3411767 -0.04736541 161.21419215 -0.02051584 C178.25697086 0.00179783 195.29957918 -0.00203402 212.34235477 -0.02510965 C232.13088983 -0.05189045 251.91932365 -0.06238682 271.7078743 -0.04704833 C273.82001271 -0.0454556 275.93215114 -0.04388375 278.04428959 -0.04233301 C279.08349066 -0.04156163 280.12269174 -0.04079025 281.19338375 -0.0399955 C288.50705274 -0.03568338 295.82065742 -0.04295509 303.13431644 -0.05473077 C312.05686811 -0.06878078 320.97919994 -0.0649044 329.90172654 -0.03832705 C334.45211268 -0.02521844 339.00213285 -0.01998547 343.55251598 -0.03657281 C347.72409285 -0.05154863 351.89496701 -0.04315948 356.06648076 -0.01668505 C357.56992248 -0.01113189 359.07342442 -0.0138689 360.57682693 -0.02606399 C372.96607774 -0.11879543 383.38645193 2.44160807 393.06452274 10.55643332 C402.71920474 20.37789485 405.54888261 32.26706849 405.54119205 45.6567446 C405.55222212 46.71052743 405.56325218 47.76431025 405.57461649 48.85002589 C405.6074309 52.35100324 405.61920689 55.85171267 405.63068485 59.35282004 C405.64950045 61.87519785 405.66944275 64.39756746 405.69042301 66.91992819 C405.74784237 74.46159317 405.77985644 82.00321076 405.80660638 89.54503804 C405.81715144 92.39084199 405.82958885 95.23663617 405.84212537 98.08243193 C405.89746932 110.64615359 405.94472284 123.20987558 405.96781921 135.77370131 C405.97354775 138.83978787 405.97930896 141.90587436 405.98517704 144.97196066 C405.98735387 146.11488275 405.98735387 146.11488275 405.98957468 147.28089418 C406.01448691 159.62936152 406.09054017 171.97695826 406.18791907 184.32504533 C406.28729075 197.03020302 406.34117843 209.73491848 406.35075194 222.44046664 C406.35722968 229.56350415 406.38321193 236.68526811 406.46013546 243.80792487 C406.53233521 250.50802826 406.54263899 257.20545035 406.51185131 263.90600073 C406.51036775 266.3581644 406.52925712 268.8104422 406.57051945 271.26225913 C406.8950817 291.69808651 406.8950817 291.69808651 400.97986752 298.66608214 C398.97472231 300.69926286 396.88050102 302.54034596 394.6503402 304.32192123 C392.01312137 306.54104425 389.82314797 309.1135242 387.53717899 311.68924582 C386.63137396 312.68172853 385.72403099 313.67281186 384.81452274 314.66190207 C384.36705692 315.15061789 383.9195911 315.63933371 383.45856571 316.1428591 C381.17325404 318.63838989 378.88638319 321.13249109 376.59967899 323.62674582 C375.68300496 324.62673907 374.76633829 325.62673906 373.84967899 326.62674582 C258.349679 452.62674582 258.349679 452.62674582 256.97419071 454.1272341 C256.05909266 455.12555243 255.14405344 456.12392468 254.22907352 457.12235129 C251.91389047 459.64853002 249.59763889 462.17371414 247.27936649 464.69705832 C243.05201149 469.30024347 238.83441816 473.91088358 234.66217899 478.56424582 C230.20323984 483.53186965 225.67529568 488.43357834 221.14264774 493.33377707 C218.26573137 496.44457423 215.39918283 499.56472927 212.53717899 502.68924582 C211.86259647 503.42570334 211.86259647 503.42570334 211.17438602 504.17703879 C210.26905297 505.16559097 209.36377937 506.15419759 208.45856571 507.1428591 C206.17325404 509.63838989 203.88638319 512.13249109 201.59967899 514.62674582 C200.68300496 515.62673907 199.76633829 516.62673906 198.84967899 517.62674582 C186.01634566 531.62674582 173.18301233 545.62674582 160.34967899 559.62674582 C159.8952039 560.12255148 159.4407288 560.61835715 158.97248173 561.12918723 C158.06319833 562.12110334 157.15385666 563.11296604 156.24445438 564.10477316 C153.83932303 566.72800316 151.43545008 569.35237275 149.03327274 571.97830832 C148.53182743 572.52615988 148.03038212 573.07401145 147.51374149 573.63846457 C146.55112956 574.69020723 145.58887263 575.74227495 144.62702274 576.79471457 C142.81524794 578.77364716 140.99717147 580.72925334 139.09967899 582.62674582 C140.31005203 582.62821238 141.52042507 582.62967894 142.76747608 582.63118994 C171.53307632 582.66693229 200.29858759 582.72323162 229.0640931 582.80466677 C232.60866949 582.8146836 236.15324635 582.82452784 239.69782352 582.83426535 C240.4034515 582.83620672 241.10907948 582.8381481 241.83609012 582.8401483 C253.24463112 582.87112519 264.65315203 582.88813689 276.06172714 582.89994004 C287.77781077 582.912374 299.49378938 582.93992585 311.20980668 582.98135889 C317.78640179 583.00396632 324.36284718 583.01965691 330.9394846 583.01862967 C337.13487681 583.01788266 343.32993813 583.03585076 349.52524471 583.06791365 C351.79389467 583.07640318 354.06258178 583.07816906 356.33124065 583.07254851 C384.46391763 583.01215664 384.46391763 583.01215664 396.04108524 594.40408957 C403.8844398 602.87253121 405.55889241 612.25233363 405.48062992 623.48074973 C405.48764988 625.05106672 405.48764988 625.05106672 405.49481165 626.65310729 C405.50671108 630.13663918 405.49732401 633.61977399 405.48786259 637.10330832 C405.49193052 639.6106959 405.49727364 642.11808168 405.50379276 644.62546408 C405.51602969 650.71421746 405.51426979 656.80282549 405.50555484 662.8915807 C405.49876334 667.84263864 405.4978679 672.79366551 405.50112629 677.74472678 C405.50158599 678.45097713 405.50204569 679.15722748 405.50251932 679.88487935 C405.50347855 681.31987871 405.50445119 682.75487805 405.50543709 684.18987739 C405.5139796 697.62718573 405.50417477 711.06443255 405.48803599 724.5017308 C405.47463384 736.01674056 405.47696225 747.53165957 405.49079227 759.0466677 C405.50686825 772.43783621 405.51315574 785.82895088 405.50395548 799.2201277 C405.5029999 800.64967341 405.50205678 802.07921913 405.50112629 803.50876486 C405.50066346 804.21202009 405.50020064 804.91527532 405.49972378 805.63984132 C405.49713994 810.58155463 405.50149179 815.52323362 405.50856495 820.46494162 C405.51788625 827.12330716 405.51119371 833.7814755 405.49388218 840.43983328 C405.48992286 842.88027534 405.49104185 845.32073185 405.49767017 847.76116812 C405.50589742 851.09855225 405.49554924 854.43539222 405.48062992 857.77274191 C405.48732209 858.73287507 405.49401425 859.69300822 405.50090921 860.68223631 C405.40707692 871.5427539 402.37520552 880.46292827 395.09967899 888.62674582 C386.58233969 896.00947606 377.32009297 898.08271551 366.296731 898.01442587 C364.71650333 898.02250418 364.71650333 898.02250418 363.10435188 898.03074569 C359.59241973 898.04499435 356.08086615 898.03792898 352.56891727 898.03079855 C350.04359479 898.03650373 347.51827488 898.04346856 344.99295902 898.05159628 C338.85628101 898.06766626 332.71974161 898.06963151 326.58304895 898.06438338 C321.59240536 898.06033378 316.60179195 898.0617946 311.61114979 898.06713164 C310.89950195 898.06788006 310.18785411 898.06862848 309.45464119 898.06939958 C308.00869203 898.07093114 306.56274288 898.07246949 305.11679374 898.07401455 C291.57168584 898.08772717 278.02663578 898.08231075 264.48152922 898.07082934 C252.10607691 898.06089938 239.73077416 898.07383568 227.35534491 898.09776353 C214.62992168 898.12218158 201.90456803 898.1317557 189.17912185 898.12511081 C182.04209377 898.12162444 174.90518065 898.12381195 167.76817036 898.14136183 C161.05560452 898.15766408 154.34336918 898.15286021 147.63079548 898.13405669 C145.17142128 898.13037451 142.71202589 898.13346838 140.25267124 898.14394248 C136.88698547 898.1571789 133.52224025 898.1455802 130.15659428 898.12795126 C129.19090995 898.13755627 128.22522562 898.14716128 127.23027813 898.15705734 C116.43332347 898.04125772 106.72396175 894.41419416 99.09967899 886.62674582 C92.41327835 877.83111579 90.79202767 869.26220277 90.85358334 858.47496665 C90.85127565 857.47466054 90.84896796 856.47435443 90.84659034 855.44373602 C90.84129307 852.0890634 90.85027232 848.73458244 90.85916996 845.37991965 C90.85829784 842.95175693 90.85654674 840.5235944 90.85399163 838.09543288 C90.85045031 832.81484483 90.85312041 827.5343142 90.86126804 822.25373518 C90.87334951 814.40174626 90.87393859 806.54978573 90.87218407 798.6977892 C90.86955748 785.48881707 90.87623447 772.27986496 90.88821888 759.07089865 C90.90005405 745.99289471 90.907751 732.91489912 90.90992451 719.83688986 C90.91006199 719.02365422 90.91019947 718.21041858 90.91034111 717.37253943 C90.91101778 713.24250474 90.91162055 709.11247005 90.91219486 704.98243535 C90.91639537 675.73154228 90.92986922 646.4806601 90.94880009 617.22977316 C90.96716962 588.81343259 90.9813027 560.39709503 90.98981571 531.98074973 C90.990357 530.19374943 90.9908984 528.40674913 90.99143994 526.61974883 C90.9958175 512.09955742 90.99990265 497.57936592 91.0039169 483.0591744 C91.02269041 415.91502122 91.06283159 348.77089646 91.09967899 281.62674582 C-21.76032101 281.62674582 -134.62032101 281.62674582 -250.90032101 281.62674582 C-244.50154686 289.67380658 -244.50154686 289.67380658 -237.58782101 296.94705832 C-235.91493897 298.61219553 -234.37491001 300.33603714 -232.83782101 302.12674582 C-229.33920171 306.18609191 -225.69018814 310.09326455 -222.02532101 314.00174582 C-217.34958511 318.99025839 -212.72321199 324.01373442 -208.16594601 329.11112082 C-205.47652834 332.09730181 -202.75397145 335.05144394 -200.02532101 338.00174582 C-199.26457272 338.82436911 -199.26457272 338.82436911 -198.48845577 339.66361105 C-197.98112911 340.21218771 -197.47380245 340.76076437 -196.95110226 341.32596457 C-190.74715339 348.03458802 -184.56345308 354.76138272 -178.46282101 361.56424582 C-174.00388185 366.53186965 -169.47593769 371.43357834 -164.94328976 376.33377707 C-160.69960669 380.92245311 -156.47991559 385.53306185 -152.25920773 390.1428591 C-149.97389605 392.63838989 -147.6870252 395.13249109 -145.40032101 397.62674582 C-144.48364697 398.62673907 -143.5669803 399.62673906 -142.65032101 400.62674582 C-142.19657101 401.12174582 -141.74282101 401.61674582 -141.27532101 402.12674582 C-139.90032101 403.62674582 -138.52532101 405.12674582 -137.15032101 406.62674582 C-136.69640987 407.12190695 -136.24249874 407.61706809 -135.77483273 408.1272341 C-134.85973468 409.12555243 -133.94469545 410.12392468 -133.02971554 411.12235129 C-130.24592076 414.15984897 -127.45981581 417.1952077 -124.67229366 420.22928488 C-123.29314492 421.7323208 -121.91679462 423.23787665 -120.54094601 424.74393332 C-118.83065167 426.61108897 -117.11237337 428.47097543 -115.38469601 430.32205832 C-103.14644097 443.57341394 -100.4421479 454.77867118 -100.51264095 472.51700461 C-100.50846389 474.23030393 -100.50298433 475.94360049 -100.49632114 477.65689194 C-100.48189702 482.34670095 -100.48610175 487.03633377 -100.49348795 491.7261523 C-100.49822476 496.79098982 -100.48570532 501.85578951 -100.47547054 506.92061484 C-100.45828799 516.83542924 -100.45744132 526.75018026 -100.46268345 536.66500568 C-100.46672695 544.72389895 -100.46527945 552.78277349 -100.45993519 560.84166586 C-100.45918677 561.98919865 -100.45843834 563.13673144 -100.45766724 564.31903794 C-100.45613575 566.6503203 -100.4545974 568.98160264 -100.45305227 571.31288499 C-100.4393295 593.1668663 -100.44476364 615.02081179 -100.45623749 636.87479228 C-100.46617232 656.86516954 -100.45322445 676.85545428 -100.4293033 696.84581727 C-100.40491846 717.37851709 -100.39530275 737.91117381 -100.40195602 758.44388783 C-100.40544926 769.96888256 -100.40320909 781.49380611 -100.38570499 793.01878989 C-100.37099087 802.82834363 -100.37033745 812.63777604 -100.38777591 822.44732738 C-100.39629421 827.45112014 -100.398415 832.4546961 -100.38312435 837.45847762 C-100.36929251 842.04162472 -100.37402113 846.62436894 -100.39336359 851.20749265 C-100.39712846 852.8628104 -100.39418757 854.51816032 -100.38375194 856.17344946 C-100.31068638 868.65331406 -101.85262214 879.27745699 -110.90032101 888.62674582 C-119.61804284 895.88054833 -128.51910369 898.08488612 -139.67203426 898.00769675 C-140.72214139 898.01237672 -141.77224851 898.01705669 -142.85417706 898.02187848 C-146.3546335 898.03379469 -149.854696 898.02438418 -153.35515499 898.01492941 C-155.87224715 898.01899662 -158.38933752 898.02433934 -160.90642452 898.03085959 C-167.02272034 898.04310428 -173.13887154 898.04133236 -179.25516921 898.03262167 C-184.22865759 898.02583319 -189.20211504 898.02493342 -194.17560673 898.02819312 C-194.88476793 898.02865282 -195.59392913 898.02911251 -196.32458006 898.02958614 C-197.76545795 898.03054537 -199.20633583 898.03151801 -200.6472137 898.03250392 C-214.14412914 898.04104928 -227.64098335 898.03123742 -241.13788874 898.01510282 C-252.70464487 898.00170331 -264.27131065 898.00402634 -275.83806515 898.0178591 C-289.28672508 898.03393503 -302.7353314 898.04022234 -316.1839996 898.03102231 C-317.61973956 898.03006672 -319.05547954 898.0291236 -320.49121952 898.02819312 C-321.19753385 898.02773029 -321.90384818 898.02726746 -322.63156597 898.02679061 C-327.59530901 898.02420654 -332.55901788 898.02855918 -337.52275562 898.03563178 C-344.21147631 898.04495316 -350.90000069 898.03826046 -357.58871365 898.02094901 C-360.04044277 898.01698955 -362.49218628 898.01810891 -364.94390965 898.024737 C-368.29667314 898.03296378 -371.6488949 898.02261656 -375.00162411 898.00769675 C-376.44868344 898.017735 -376.44868344 898.017735 -377.92497629 898.02797604 C-389.20435603 897.93096415 -397.47646978 894.82754666 -405.58782101 886.99783957 C-412.92676133 879.09013137 -415.02091737 870.20044713 -415.03174877 859.61256087 C-415.03482772 858.58441455 -415.03482772 858.58441455 -415.03796887 857.53549761 C-415.0436211 855.23983549 -415.04218383 852.94423371 -415.0407629 850.64856589 C-415.04334756 848.98551982 -415.046361 847.32247438 -415.0497663 845.65942979 C-415.05782776 841.08991431 -415.0596254 836.52041455 -415.06036377 831.95089281 C-415.06221581 827.02229307 -415.06976392 822.09370145 -415.07649899 817.16510642 C-415.09007681 806.3881413 -415.09610618 795.6111799 -415.10050964 784.83420765 C-415.10327302 778.10387559 -415.10751055 771.37354496 -415.11201382 764.64321387 C-415.12420581 746.00565235 -415.13450523 727.36809198 -415.13788891 708.73052657 C-415.13821826 706.94149835 -415.13821826 706.94149835 -415.13855426 705.11632816 C-415.13877254 703.92080328 -415.13899082 702.72527841 -415.13921571 701.49352551 C-415.13965917 699.07097264 -415.14010574 696.64841978 -415.14055538 694.22586691 C-415.14077681 693.02419928 -415.14099824 691.82253165 -415.14122638 690.58444984 C-415.14517389 671.11574309 -415.16262681 651.64707378 -415.1859149 632.17838149 C-415.20963627 612.18595271 -415.22209112 592.19354271 -415.22325683 572.20109963 C-415.22417315 560.9778016 -415.22991472 549.75455235 -415.24807644 538.53126776 C-415.263488 528.97385641 -415.26859164 519.41650893 -415.26033834 509.85908751 C-415.25643559 504.98471968 -415.25734317 500.11048041 -415.27139568 495.23612845 C-415.28415689 490.76874397 -415.28291762 486.30158437 -415.27080497 481.8342001 C-415.26885182 480.22313811 -415.27190866 478.61206006 -415.28064933 477.0010206 C-415.37530966 458.36497813 -411.30940031 445.5495094 -398.08782101 432.12674582 C-396.65867319 430.64310484 -395.23028193 429.1587347 -393.80266476 427.67362082 C-393.12445675 426.97301535 -392.44624874 426.27240988 -391.74748898 425.55057395 C-389.49553189 423.20515737 -387.31263394 420.80488439 -385.15032101 418.37674582 C-381.81254739 414.63285526 -378.43125831 410.93347625 -375.02532101 407.25174582 C-371.12070505 403.03055609 -367.22178171 398.80445659 -363.33782101 394.56424582 C-362.88809933 394.07327414 -362.43837765 393.58230246 -361.97502804 393.07645285 C-361.06969499 392.08790067 -360.16442138 391.09929405 -359.25920773 390.11063254 C-356.97389605 387.61510175 -354.6870252 385.12100055 -352.40032101 382.62674582 C-351.48364697 381.62675258 -350.5669803 380.62675258 -349.65032101 379.62674582 C-304.27532101 330.12674582 -258.90032101 280.62674582 -210.77483273 228.12625754 C-209.85973468 227.12793921 -208.94469545 226.12956696 -208.02971554 225.13114035 C-205.71453248 222.60496162 -203.3982809 220.0797775 -201.08000851 217.55643332 C-196.8526535 212.95324817 -192.63506018 208.34260806 -188.46282101 203.68924582 C-184.00388185 198.72162199 -179.47593769 193.8199133 -174.94328976 188.91971457 C-172.06637339 185.80891741 -169.19982484 182.68876237 -166.33782101 179.56424582 C-165.88809933 179.07327414 -165.43837765 178.58230246 -164.97502804 178.07645285 C-164.06969499 177.08790067 -163.16442138 176.09929405 -162.25920773 175.11063254 C-159.97389605 172.61510175 -157.6870252 170.12100055 -155.40032101 167.62674582 C-154.48364697 166.62675258 -153.5669803 165.62675258 -152.65032101 164.62674582 C-26.15032101 26.62674582 -26.15032101 26.62674582 -24.77361202 25.12503684 C-23.86243533 24.13092281 -22.95146325 23.1366212 -22.04070187 22.14212668 C-19.66673326 19.55044861 -17.28866738 16.96270199 -14.90422726 14.38065207 C-14.16559444 13.57917746 -14.16559444 13.57917746 -13.41203976 12.76151145 C-12.04592317 11.27940383 -10.6782503 9.79873114 -9.31047726 8.31815207 C-6.88313196 5.73525012 -6.88313196 5.73525012 -5.14633751 2.99785829 C-2.90032101 0.62674582 -2.90032101 0.62674582 0 0 Z " fill="#56DFCF" transform="translate(465.9003210067749,17.37325417995453)"/>
</svg>
